<svg width="12" height="12" viewBox="0 0 12 12" fill="none" xmlns="http://www.w3.org/2000/svg">
<path opacity="0.967" fill-rule="evenodd" clip-rule="evenodd" d="M0.980496 0.589939C1.12233 0.576658 1.25253 0.609236 1.37112 0.687595C2.90159 2.22459 4.43807 3.75455 5.9805 5.27744C7.53596 3.7415 9.08542 2.19853 10.6289 0.648533C11.0528 0.482634 11.3003 0.619353 11.3711 1.05869C11.372 1.15498 11.3524 1.24611 11.3125 1.33213C9.76253 2.87564 8.21956 4.4251 6.68362 5.98057C8.21956 7.53603 9.76253 9.08549 11.3125 10.629C11.4784 11.0529 11.3417 11.3003 10.9024 11.3712C10.8061 11.372 10.7149 11.3525 10.6289 11.3126C9.08542 9.7626 7.53596 8.21963 5.9805 6.68369C4.42503 8.21963 2.87557 9.7626 1.33206 11.3126C0.908152 11.4785 0.66073 11.3418 0.589871 10.9024C0.589012 10.8062 0.608543 10.715 0.648465 10.629C2.19846 9.08549 3.74143 7.53603 5.27737 5.98057C3.75448 4.43814 2.22452 2.90166 0.687527 1.37119C0.520066 1.0074 0.617722 0.74697 0.980496 0.589939Z" fill="#A1824A"/>
</svg>
