<svg width="18" height="19" viewBox="0 0 18 19" fill="none" xmlns="http://www.w3.org/2000/svg">
<path fill-rule="evenodd" clip-rule="evenodd" d="M17.5153 7.7288L10.0153 0.652546C10.0116 0.649347 10.0082 0.645902 10.005 0.642234C9.43281 0.12186 8.55876 0.12186 7.98656 0.642234L7.97625 0.652546L0.484688 7.7288C0.17573 8.0129 -6.37851e-05 8.41345 1.73613e-08 8.83317V17.5004C1.73613e-08 18.3288 0.671573 19.0004 1.5 19.0004H6C6.82843 19.0004 7.5 18.3288 7.5 17.5004V13.0004H10.5V17.5004C10.5 18.3288 11.1716 19.0004 12 19.0004H16.5C17.3284 19.0004 18 18.3288 18 17.5004V8.83317C18.0001 8.41345 17.8243 8.0129 17.5153 7.7288ZM16.5 17.5004H12V13.0004C12 12.1719 11.3284 11.5004 10.5 11.5004H7.5C6.67157 11.5004 6 12.1719 6 13.0004V17.5004H1.5V8.83317L1.51031 8.8238L9 1.75036L16.4906 8.82192L16.5009 8.8313L16.5 17.5004Z" fill="#990099"/>
</svg>
