<svg width="21" height="23" viewBox="0 0 21 23" fill="none" xmlns="http://www.w3.org/2000/svg">
<path fill-rule="evenodd" clip-rule="evenodd" d="M6.33693 1.47598C3.38793 3.54098 2.64393 7.40998 4.50393 11.008C5.40793 12.755 5.61893 13.999 5.01093 13.999C3.81293 13.999 0.0089272 19.886 0.0039272 21.749C-0.0030728 24.058 1.74593 23.027 3.00893 19.978C4.62293 16.081 5.65193 15.508 7.57893 17.435C8.43893 18.295 9.75393 18.999 10.4999 18.999C11.2459 18.999 12.5609 18.295 13.4209 17.435C15.3479 15.508 16.3769 16.081 17.9909 19.978C19.4369 23.469 21.4639 24.102 20.4629 20.749C19.5109 17.557 17.1319 13.999 15.9509 13.999C15.3999 13.999 15.6449 12.653 16.4959 11.008C20.1719 3.89698 12.7809 -3.03802 6.33693 1.47598ZM13.9999 3.99898C16.3379 6.33698 16.5039 7.92698 14.6719 10.433C12.0369 14.037 4.99993 11.764 4.99993 7.30798C4.99993 5.52498 8.65293 1.99898 10.4999 1.99898C11.3249 1.99898 12.8999 2.89898 13.9999 3.99898ZM12.0909 15.922C11.3159 16.412 10.0779 16.582 9.34093 16.299C7.22593 15.488 7.76393 14.998 10.7499 15.014C12.7509 15.025 13.1159 15.272 12.0909 15.922Z" fill="#6A6A6A"/>
</svg>
